<svg xmlns="http://www.w3.org/2000/svg" viewBox="0 0 100 100">
  <rect width="100" height="100" fill="#17120e"/>
  <path d="M 42.12 43.843 Q 37.889 27.787 50 4 Q 62.111 27.787 57.88 43.843 A 10 10 0 0 1 42.12 43.843 Z" fill="#eb9c3e"/>
  <path d="M 47.921 40.219 Q 55.001 25.199 79.568 14.762 Q 73.556 40.769 59.994 50.349 A 10 10 0 0 1 47.921 40.219 Z" fill="#eb9c3e"/>
  <path d="M 54.695 41.171 Q 69.772 34.216 95.301 42.012 Q 73.979 58.07 57.431 56.691 A 10 10 0 0 1 54.695 41.171 Z" fill="#eb9c3e"/>
  <path d="M 59.272 46.254 Q 75.292 50.618 89.837 73 Q 63.182 71.595 51.392 59.903 A 10 10 0 0 1 59.272 46.254 Z" fill="#eb9c3e"/>
  <path d="M 59.511 53.09 Q 68.978 66.731 65.733 93.226 Q 46.217 75.016 44.701 58.48 A 10 10 0 0 1 59.511 53.09 Z" fill="#eb9c3e"/>
  <path d="M 55.299 58.48 Q 53.783 75.016 34.267 93.226 Q 31.022 66.731 40.489 53.09 A 10 10 0 0 1 55.299 58.48 Z" fill="#eb9c3e"/>
  <path d="M 48.608 59.903 Q 36.818 71.595 10.163 73 Q 24.708 50.618 40.728 46.254 A 10 10 0 0 1 48.608 59.903 Z" fill="#eb9c3e"/>
  <path d="M 42.569 56.691 Q 26.021 58.07 4.699 42.012 Q 30.228 34.216 45.305 41.171 A 10 10 0 0 1 42.569 56.691 Z" fill="#eb9c3e"/>
  <path d="M 40.006 50.349 Q 26.444 40.769 20.432 14.762 Q 44.999 25.199 52.079 40.219 A 10 10 0 0 1 40.006 50.349 Z" fill="#eb9c3e"/>
</svg>
